# xmcd
#
# Track frame offsets:
#	150
#	18490
#	37125
#	57565
#	73210
#	92300
#	120395
#	151620
#	172660
#	207055
#	240095
#	266665
#	281845
#	296585
#
# Disc length: 4484 seconds
#
# Revision: 1
# Processed by: cddbd v1.5.1PL2 Copyright (c) Steve Scherf et al.
# Submitted via: EasyCDDAExtractor 9.0.0.1
#
DISCID=ba11820e
DTITLE=Saxon - Astoria London 23-04-06 Disc 1
DYEAR=2006
DGENRE=Hard Rock
TTITLE0=Motorcycle Man
TTITLE1=Backs To The Wall
TTITLE2=Strong Arm Of The Law
TTITLE3=Never Surrender
TTITLE4=Stallions Of The Highway
TTITLE5=The Power and The Glory
TTITLE6=Frozen Rainbow
TTITLE7=Suzie Hold On
TTITLE8=The Eagle Has Landed
TTITLE9=Dallas 1PM
TTITLE10=Redline
TTITLE11=To Hell And Back Again
TTITLE12=And The Bands Played On
TTITLE13=Crusader
EXTD=
EXTT0=
EXTT1=
EXTT2=
EXTT3=
EXTT4=
EXTT5=
EXTT6=
EXTT7=
EXTT8=
EXTT9=
EXTT10=
EXTT11=
EXTT12=
EXTT13=
PLAYORDER=
